<svg width="30" height="22" viewBox="0 0 30 22" fill="none" xmlns="http://www.w3.org/2000/svg">
<path d="M2.5 21.25C1.8125 21.25 1.22396 21.0052 0.734375 20.5156C0.244792 20.026 0 19.4375 0 18.75H5C4.3125 18.75 3.72396 18.5052 3.23438 18.0156C2.74479 17.526 2.5 16.9375 2.5 16.25V2.5C2.5 1.8125 2.74479 1.22396 3.23438 0.734375C3.72396 0.244792 4.3125 0 5 0H25C25.6875 0 26.276 0.244792 26.7656 0.734375C27.2552 1.22396 27.5 1.8125 27.5 2.5V16.25C27.5 16.9375 27.2552 17.526 26.7656 18.0156C26.276 18.5052 25.6875 18.75 25 18.75H30C30 19.4375 29.7552 20.026 29.2656 20.5156C28.776 21.0052 28.1875 21.25 27.5 21.25H2.5ZM15 20C15.3542 20 15.651 19.8802 15.8906 19.6406C16.1302 19.401 16.25 19.1042 16.25 18.75C16.25 18.3958 16.1302 18.099 15.8906 17.8594C15.651 17.6198 15.3542 17.5 15 17.5C14.6458 17.5 14.349 17.6198 14.1094 17.8594C13.8698 18.099 13.75 18.3958 13.75 18.75C13.75 19.1042 13.8698 19.401 14.1094 19.6406C14.349 19.8802 14.6458 20 15 20ZM5 16.25H25V2.5H5V16.25ZM5 16.25V2.5V16.25Z" fill="#45464D"/>
</svg>
